<?xml version="1.0" encoding="UTF-8" standalone="no"?>
<svg width="35px" height="45px" viewBox="0 0 35 45" version="1.1" xmlns="http://www.w3.org/2000/svg" xmlns:xlink="http://www.w3.org/1999/xlink">
    <!-- Generator: Sketch 3.8.3 (29802) - http://www.bohemiancoding.com/sketch -->
    <title>Group 17</title>
    <desc>Created with Sketch.</desc>
    <defs></defs>
    <g id="Page-1" stroke="none" stroke-width="1" fill="none" fill-rule="evenodd">
        <g id="iPhone-6-Plus" transform="translate(-96.000000, -1164.000000)" stroke="#FFFFFF">
            <g id="Group-17" transform="translate(96.000000, 1164.000000)">
                <g id="Group-2" transform="translate(0.000000, 0.866667)">
                    <path d="M1.26396074,39.0460345 L2.86805511,35.5681027 L4.47214942,39.0460345 C5.35743244,39.9501724 5.35743244,41.4171034 4.47214942,42.3212414 C3.58622489,43.2260345 2.14988527,43.2260345 1.26396074,42.3212414 C0.378677719,41.4171034 0.378677719,39.9501724 1.26396074,39.0460345 Z" id="Stroke-579" stroke-linecap="round" stroke-linejoin="round"></path>
                    <path d="M30.8294824,7.89875862 L32.9855956,5.69737931 C34.1678974,4.48989655 34.3706144,2.52831034 33.3127654,1.20486207 C32.0990295,-0.313827586 29.8800484,-0.397034483 28.5559729,0.955241379 L26.2933691,3.26603448 C25.3015956,4.27958621 23.6926899,4.27958621 22.7009163,3.26603448 L22.3275578,2.88537931 C22.0228408,2.57351724 21.5282371,2.57351724 21.2235201,2.88537931 L18.698539,5.46348276 C18.393822,5.77468966 18.393822,6.27982759 18.698539,6.59168966 L27.573822,15.656 C27.8791805,15.9672069 28.3731427,15.9672069 28.6778597,15.656 L31.2028408,13.0772414 C31.5075578,12.7660345 31.5075578,12.2608966 31.2028408,11.9496897 L30.8294824,11.5683793 C29.8377088,10.5548276 29.8377088,8.91231034 30.8294824,7.89875862 L30.8294824,7.89875862 Z" id="Stroke-646"></path>
                    <path d="M25.8567558,13.9034138 L20.4135482,8.34362069 L9.52649163,19.4625517 C8.59630295,20.4125517 7.90924635,21.5807241 7.52434069,22.8661724 L7.50958597,22.9166207 C7.12468031,24.2014138 6.43762371,25.3702414 5.50743503,26.3202414 L3.13000107,28.7483103 L5.85128409,31.5275517 L8.20434069,29.1250345 C9.1499256,28.1586552 10.3168313,27.4491034 11.5992086,27.0605862 C12.8822275,26.672069 14.0491331,25.9625172 14.994718,24.9967931 L25.8567558,13.9034138 L25.8567558,13.9034138 Z" id="Stroke-648"></path>
                    <path d="M9.97939729,19 L9.52649163,19.4625517 C8.59630295,20.4125517 7.90924635,21.5807241 7.52434069,22.8661724 L7.50958597,22.9166207 C7.12468031,24.2014138 6.43762371,25.3702414 5.50743503,26.3202414 L3.13000107,28.7483103 L5.85128409,31.5275517 L8.20434069,29.1250345 C9.1499256,28.1586552 10.3168313,27.4491034 11.5992086,27.0605862 C12.881586,26.672069 14.0491331,25.9625172 14.994718,24.9967931 L20.8664539,19 L9.97939729,19 L9.97939729,19 Z" id="Stroke-650"></path>
                </g>
            </g>
        </g>
    </g>
</svg>