<?xml version="1.0" encoding="UTF-8" standalone="no"?>
<svg width="50px" height="20px" viewBox="0 0 50 20" version="1.1" xmlns="http://www.w3.org/2000/svg" xmlns:xlink="http://www.w3.org/1999/xlink">
    <!-- Generator: Sketch 3.8.3 (29802) - http://www.bohemiancoding.com/sketch -->
    <title>Group 10</title>
    <desc>Created with Sketch.</desc>
    <defs></defs>
    <g id="Page-1" stroke="none" stroke-width="1" fill="none" fill-rule="evenodd">
        <g id="iPhone-6-Plus" transform="translate(-88.000000, -588.000000)">
            <g id="Group-10" transform="translate(88.000000, 587.000000)">
                <polygon id="Clip-2" points="61 12.3666667 61 23.8666667 0 23.8666667 0 12.3666667 0 0.866666667 61 0.866666667"></polygon>
                <path d="M38.3333333,19.28175 C33.7383333,19.28175 30,15.7303333 30,11.3650833 C30,6.99983333 33.7383333,3.45 38.3333333,3.45 C42.9283333,3.45 46.6666667,6.99983333 46.6666667,11.3650833 C46.6666667,15.7303333 42.9283333,19.28175 38.3333333,19.28175 M11.6666667,19.2833333 C7.07166667,19.2833333 3.33333333,15.7319167 3.33333333,11.3666667 C3.33333333,7.00141667 7.07166667,3.45 11.6666667,3.45 C16.2616667,3.45 20,7.00141667 20,11.3666667 C20,15.7319167 16.2616667,19.2833333 11.6666667,19.2833333 M48.75,9.78491667 L48.1833333,9.78491667 C47.39,5.29141667 43.2883333,1.86666667 38.3333333,1.86666667 C33.36,1.86666667 29.245,5.31991667 28.4733333,9.83875 L25.3966667,8.25383333 C25.15,8.12716667 24.85,8.12716667 24.6033333,8.25383333 L21.5266667,9.84191667 C20.7566667,5.32308333 16.64,1.86666667 11.6666667,1.86666667 C6.71166667,1.86666667 2.61,5.29141667 1.81666667,9.78333333 L1.25,9.78333333 C0.56,9.78333333 0,10.3153333 0,10.9724167 C0,11.6263333 0.56,12.1583333 1.25,12.1583333 L1.70833333,12.1583333 C2.13166667,17.035 6.425,20.8666667 11.6666667,20.8666667 C17.1133333,20.8666667 21.5366667,16.7278333 21.655,11.57725 L25,9.85141667 L28.345,11.5725 C28.4616667,16.7246667 32.8833333,20.8650833 38.3333333,20.8650833 C43.575,20.8650833 47.865,17.035 48.2916667,12.1599167 L48.75,12.1599167 C49.44,12.1599167 50,11.6279167 50,10.9724167 C50,10.3169167 49.44,9.78491667 48.75,9.78491667" id="Fill-1" fill="#FFFFFF"></path>
            </g>
        </g>
    </g>
</svg>