<?xml version="1.0" encoding="UTF-8" standalone="no"?>
<svg width="38px" height="35px" viewBox="0 0 38 35" version="1.1" xmlns="http://www.w3.org/2000/svg" xmlns:xlink="http://www.w3.org/1999/xlink">
    <!-- Generator: Sketch 3.8.3 (29802) - http://www.bohemiancoding.com/sketch -->
    <title>Group 11</title>
    <desc>Created with Sketch.</desc>
    <defs></defs>
    <g id="Page-1" stroke="none" stroke-width="1" fill="none" fill-rule="evenodd">
        <g id="iPhone-6-Plus" transform="translate(-94.000000, -660.000000)">
            <g id="Group-11" transform="translate(94.000000, 660.000000)">
                <polygon id="Clip-2" points="17 31.8432432 0 31.8432432 0 0.6 17 0.6 34 0.6 34 31.8432432 17 31.8432432"></polygon>
                <path d="M27.3904,0.6 C24.04792,0.6 20.97752,2.1485569 19,4.70268992 C17.024,2.1485569 13.9536,0.6 10.61112,0.6 C4.75912,0.6 0,5.34880671 0,11.1866084 C0,13.928813 1.05184,16.5314806 2.95944,18.5153321 L17.92232,33.5201053 L19,34.6 L20.07768,33.5201053 L34.75936,18.7989561 C36.84024,16.8060044 38,14.0926172 38,11.1866084 C38,5.34880671 33.2424,0.6 27.3904,0.6 M27.3904,2.11670607 C32.41096,2.11670607 36.48,6.17692822 36.48,11.1866084 C36.48,13.7589419 35.40536,16.0779855 33.68168,17.7296784 L19,32.4508275 L4.05536,17.4642548 C2.48672,15.8337958 1.52,13.623955 1.52,11.1866084 C1.52,6.17692822 5.59056,2.11670607 10.61112,2.11670607 C14.38984,2.11670607 17.63048,4.42058259 19,7.69818441 C20.37104,4.42058259 23.61168,2.11670607 27.3904,2.11670607" id="Fill-1" fill="#FFFFFF"></path>
            </g>
        </g>
    </g>
</svg>