<?xml version="1.0" encoding="UTF-8" standalone="no"?>
<svg width="26px" height="38px" viewBox="0 0 26 38" version="1.1" xmlns="http://www.w3.org/2000/svg" xmlns:xlink="http://www.w3.org/1999/xlink">
    <!-- Generator: Sketch 3.8.3 (29802) - http://www.bohemiancoding.com/sketch -->
    <title>Group 19</title>
    <desc>Created with Sketch.</desc>
    <defs></defs>
    <g id="Page-1" stroke="none" stroke-width="1" fill="none" fill-rule="evenodd">
        <g id="iPhone-6-Plus" transform="translate(-100.000000, -1334.000000)" fill="#FFFFFF">
            <g id="Group-19" transform="translate(100.000000, 1334.000000)">
                <path d="M19.6316642,22.5204949 C19.6150877,22.533246 19.5997863,22.5472723 19.5819347,22.5600234 C18.171658,23.5635386 16.5764896,25.726133 16.5764896,28.6525209 L16.5764896,31.2027501 L13.3887032,31.2027501 L13.3887032,15.8108419 C14.4865768,15.5277665 15.3013751,14.5382776 15.3013751,13.3511459 C15.3013751,11.9434194 14.1588724,10.8009167 12.7511459,10.8009167 C11.3421443,10.8009167 10.2009167,11.9434194 10.2009167,13.3511459 C10.2009167,14.5382776 11.0144398,15.5277665 12.1135886,15.8108419 L12.1135886,31.2027501 L8.92580212,31.2027501 L8.92580212,28.6525209 C8.92580212,25.904649 7.3688872,23.7038012 6.04659338,22.6594824 C6.03639246,22.6531068 6.02491643,22.6429059 6.01216528,22.632705 C5.97136162,22.599552 5.92928283,22.5702244 5.88975428,22.5408967 C5.86807733,22.5204949 5.84640039,22.5026433 5.82344832,22.4860668 C2.93276355,20.2915946 1.27511459,16.9648206 1.27511459,13.3511459 C1.27511459,7.02530241 6.42275218,1.87511459 12.7511459,1.87511459 C19.0782645,1.87511459 24.2271772,7.02530241 24.2271772,13.3511459 C24.2271772,16.9864976 22.5529517,20.3285729 19.6316642,22.5204949 L19.6316642,22.5204949 Z M12.7511459,14.6262605 C12.0485577,14.6262605 11.4760313,14.0550091 11.4760313,13.3511459 C11.4760313,12.6485577 12.0485577,12.0760313 12.7511459,12.0760313 C13.4524589,12.0760313 14.0262605,12.6485577 14.0262605,13.3511459 C14.0262605,14.0550091 13.4524589,14.6262605 12.7511459,14.6262605 L12.7511459,14.6262605 Z M8.92580212,36.3261605 L16.5764896,36.3261605 L16.5764896,32.4778647 L8.92580212,32.4778647 L8.92580212,36.3261605 Z M25.5022918,13.3511459 C25.5022918,6.30996313 19.7936037,0.6 12.7511459,0.6 C5.7074129,0.6 0,6.30996313 0,13.3511459 C0,17.4990936 1.98535341,21.175249 5.052004,23.5023331 L5.04690354,23.5036082 C5.1042837,23.5444119 5.1654892,23.5890409 5.22796981,23.6387704 C5.23434538,23.6438708 5.23944584,23.6489713 5.24582142,23.6515215 C6.23276011,24.4306165 7.65068753,26.2514802 7.65068753,28.6525209 L7.65068753,37.6 L17.8516042,37.6 L17.8516042,28.6525209 C17.8516042,26.1022918 19.3243616,24.2712272 20.4018334,23.5444119 L20.3992832,23.5418617 C23.4939863,21.2160527 25.5022918,17.5220457 25.5022918,13.3511459 L25.5022918,13.3511459 Z" id="Fill-1"></path>
            </g>
        </g>
    </g>
</svg>