<?xml version="1.0" encoding="UTF-8" standalone="no"?>
<svg width="36px" height="41px" viewBox="0 0 36 41" version="1.1" xmlns="http://www.w3.org/2000/svg" xmlns:xlink="http://www.w3.org/1999/xlink">
    <!-- Generator: Sketch 3.8.3 (29802) - http://www.bohemiancoding.com/sketch -->
    <title>Group 12</title>
    <desc>Created with Sketch.</desc>
    <defs></defs>
    <g id="Page-1" stroke="none" stroke-width="1" fill="none" fill-rule="evenodd">
        <g id="iPhone-6-Plus" transform="translate(-96.000000, -732.000000)" stroke="#F1F2F2" stroke-width="2">
            <g id="Group-12" transform="translate(97.000000, 732.000000)">
                <g id="Untitled-1" transform="translate(0.000000, 0.866667)">
                    <path d="M15.0937188,0.659125632 C14.4870995,0.566394833 15.6881092,13.4622044 15.0731033,13.184584 C12.8296338,12.1718573 10.5895581,10.3025809 8.78475,10.3025809 C6.30896842,10.3025809 0.0401289474,17.4730441 0.0401289474,31.5307408 C0.0401289474,38.6484283 3.33244737,38.875364 3.75118421,38.875364 C5.83788947,38.875364 7.72395,37.4416232 10.0828342,34.0006452 C12.4417184,30.5579081 13.3856211,29.6536838 15.0937184,29.6536838 L16.8628816,29.6536838 L18.7280053,29.6536838 C20.4378474,29.6536838 21.38175,30.5579081 23.7406342,34.0006452 C26.0995184,37.4416232 27.9855789,38.875364 30.0304105,38.875364 C30.4910211,38.875364 33.7833395,38.6501875 33.7833395,31.5307408 C33.7833395,17.4730441 27.5145,10.3025809 25.0387184,10.3025809 C23.2826954,10.3039212 21.1205385,12.0647776 18.943476,13.0938459 C18.2631227,13.4154398 19.6148002,0.556503703 18.943476,0.659125632 L15.0937188,0.659125632 Z" id="Shape"></path>
                </g>
            </g>
        </g>
    </g>
</svg>