<?xml version="1.0" encoding="UTF-8" standalone="no"?>
<svg width="20px" height="36px" viewBox="0 0 20 36" version="1.1" xmlns="http://www.w3.org/2000/svg" xmlns:xlink="http://www.w3.org/1999/xlink">
    <!-- Generator: Sketch 3.8.3 (29802) - http://www.bohemiancoding.com/sketch -->
    <title>Group 8</title>
    <desc>Created with Sketch.</desc>
    <defs></defs>
    <g id="Page-1" stroke="none" stroke-width="1" fill="none" fill-rule="evenodd">
        <g id="iPhone-6-Plus" transform="translate(-94.000000, -485.000000)" stroke="#FFFFFF" fill="#FFFFFF">
            <g id="Group-8" transform="translate(94.000000, 486.000000)">
                <path d="M5.00222222,6.63973118 C5.00222222,3.83973118 7.24555556,1.56021505 10.0022222,1.56021505 C12.7588889,1.56021505 15.0022222,3.83973118 15.0022222,6.63973118 L15.0022222,17.9323118 C15.0022222,20.7334409 12.7588889,23.012957 10.0022222,23.012957 C7.24555556,23.012957 5.00222222,20.7334409 5.00222222,17.9323118 L5.00222222,6.63973118 L5.00222222,6.63973118 Z M10.0022222,24.1419892 C13.3766667,24.1419892 16.1133333,21.3611828 16.1133333,17.9323118 L16.1133333,6.63973118 C16.1133333,3.21086022 13.3766667,0.431182796 10.0022222,0.431182796 C6.62777778,0.431182796 3.89111111,3.21086022 3.89111111,6.63973118 L3.89111111,17.9323118 C3.89111111,21.3611828 6.62777778,24.1419892 10.0022222,24.1419892 L10.0022222,24.1419892 Z" id="Stroke-1"></path>
                <path d="M18.3333333,12.2860215 L18.3333333,17.9323118 C18.3333333,22.6008602 14.5955556,26.4000538 10,26.4000538 C5.40444444,26.4000538 1.66666667,22.6008602 1.66666667,17.9323118 L1.66666667,12.2860215 L0.555555556,12.2860215 L0.555555556,17.9323118 C0.555555556,23.0547312 4.52888889,27.2411828 9.50777778,27.5042473 L9.44666667,27.5042473 L9.44666667,33.1866667 L4.44444444,33.1866667 L4.44444444,34.3156989 L15.5555556,34.3156989 L15.5555556,33.1866667 L10.5577778,33.1866667 L10.5577778,27.5042473 L10.4922222,27.5042473 C15.4711111,27.2411828 19.4444444,23.0547312 19.4444444,17.9323118 L19.4444444,12.2860215 L18.3333333,12.2860215 L18.3333333,12.2860215 Z" id="Stroke-3"></path>
            </g>
        </g>
    </g>
</svg>