<?xml version="1.0" encoding="UTF-8" standalone="no"?>
<svg width="39px" height="34px" viewBox="0 0 39 34" version="1.1" xmlns="http://www.w3.org/2000/svg" xmlns:xlink="http://www.w3.org/1999/xlink">
    <!-- Generator: Sketch 3.8.3 (29802) - http://www.bohemiancoding.com/sketch -->
    <title>Group 14</title>
    <desc>Created with Sketch.</desc>
    <defs></defs>
    <g id="Page-1" stroke="none" stroke-width="1" fill="none" fill-rule="evenodd">
        <g id="iPhone-6-Plus" transform="translate(-94.000000, -908.000000)" fill="#FFFFFF">
            <g id="Group-14" transform="translate(94.000000, 907.000000)">
                <g id="Group-3" transform="translate(0.000000, 0.866667)">
                    <polygon id="Fill-1" points="24 13.8635659 34.5 13.8635659 34.5 12.5351938 24 12.5351938"></polygon>
                    <polygon id="Fill-2" points="24 21.8337984 34.5 21.8337984 34.5 20.5054264 24 20.5054264"></polygon>
                    <polygon id="Fill-3" points="24 17.8486822 31.488 17.8486822 31.488 16.5203101 24 16.5203101"></polygon>
                    <path d="M16.5,0.579844961 L16.5,4.56628961 L-1.42108547e-14,4.56628961 L-1.42108547e-14,33.7891473 L39,33.7891473 L39,4.56628961 L22.5015,4.56628961 L22.5015,0.579844961 L16.5,0.579844961 Z M18,8.55007752 L21.0015,8.55007752 L21.0015,1.90821705 L18,1.90821705 L18,8.55007752 Z M22.5015,8.55140589 L37.5015,8.55140589 L37.5015,5.89466171 L22.5015,5.89466171 L22.5015,8.55140589 Z M1.5,8.55140589 L16.5,8.55140589 L16.5,5.89466171 L1.5,5.89466171 L1.5,8.55140589 Z M1.5,9.87844961 L16.5,9.87844961 L22.5015,9.87844961 L37.5,9.87844961 L37.5,32.4607752 L1.5,32.4607752 L1.5,9.87844961 Z" id="Fill-4"></path>
                    <path d="M22.11,26.5574896 C21.0255,26.1576496 18.471,25.3712533 16.887,24.9581296 C16.752,24.9209352 16.731,24.9142933 16.731,24.4161538 C16.731,24.0056868 16.9215,23.5925631 17.109,23.2418729 C17.3085,22.8606301 17.5485,22.2216831 17.634,21.6478264 C17.874,21.3994208 18.2025,20.9132366 18.4125,19.9847045 C18.597,19.1677557 18.5115,18.8702003 18.3885,18.5899138 C18.375,18.5606896 18.363,18.5327938 18.351,18.5035696 C18.3045,18.3109557 18.369,17.3146766 18.5265,16.541564 C18.636,16.0115436 18.4995,14.8837557 17.6745,13.9499101 C17.154,13.3601129 16.158,12.6361501 14.337,12.5351938 L13.338,12.5365222 C11.5515,12.6361501 10.5525,13.3601129 10.032,13.9499101 C9.207,14.8837557 9.0705,16.0115436 9.1785,16.541564 C9.3375,17.3146766 9.4005,18.3109557 9.3555,18.4995845 C9.3465,18.5327938 9.333,18.5606896 9.3195,18.5899138 C9.1995,18.8702003 9.111,19.1677557 9.2955,19.9847045 C9.507,20.9132366 9.831,21.3994208 10.0755,21.6478264 C10.1565,22.2216831 10.3965,22.8606301 10.599,23.2418729 C10.749,23.5195026 10.818,23.8994171 10.818,24.4334226 C10.818,24.9315622 10.7955,24.938204 10.6695,24.9740701 C9.033,25.4018059 6.4275,26.2346952 5.4555,26.6119529 C4.6875,26.9041947 4.5,27.4289017 4.5,27.9031305 L4.5,28.4756589 L6,28.4756589 L6,27.9031305 C6,27.8818766 6,27.8646078 6.003,27.8526524 C6.015,27.8460105 6.0315,27.8380403 6.0585,27.8287417 C6.9795,27.4700812 9.5355,26.6544608 11.124,26.2400087 C12.318,25.9039305 12.318,24.9116366 12.318,24.4334226 C12.318,23.6988329 12.2025,23.1395882 11.9565,22.674658 C11.8065,22.3917147 11.622,21.8882617 11.562,21.4764664 L11.505,21.0806115 L11.208,20.7777426 C11.1645,20.732578 10.9365,20.4695603 10.767,19.7230152 C10.6515,19.2208905 10.6935,19.1265761 10.716,19.0721129 C10.7565,18.9870971 10.7895,18.9007529 10.8225,18.7811994 C10.9545,18.2432087 10.7775,16.9015529 10.6545,16.3051138 C10.614,16.1085147 10.6725,15.3805668 11.214,14.7681873 C11.6895,14.2301966 12.4215,13.9259994 13.3905,13.8648943 L14.289,13.8635659 C15.2775,13.9259994 16.0185,14.2301966 16.494,14.7681873 C17.034,15.3805668 17.091,16.1085147 17.0535,16.3037854 C16.9305,16.9002245 16.755,18.2418803 16.887,18.7811994 L16.8975,18.8343343 L16.9155,18.8848124 C16.935,18.9419324 16.956,18.9990524 16.989,19.0721129 C17.016,19.1279045 17.0565,19.2208905 16.9425,19.7230152 C16.7715,20.4695603 16.542,20.7352347 16.497,20.7803994 L16.206,21.0806115 L16.1475,21.4738096 C16.086,21.8869333 15.9015,22.3917147 15.753,22.674658 C15.51,23.1302896 15.231,23.7400124 15.231,24.4161538 C15.231,24.8930394 15.231,25.8866617 16.461,26.2320384 C17.961,26.6239082 20.472,27.3917073 21.5175,27.7782636 C21.6765,27.8380403 21.732,27.9124291 21.75,27.9389966 L21.75,28.4756589 L23.25,28.4756589 L23.25,27.9031305 C23.25,27.4289017 22.878,26.8510598 22.11,26.5574896" id="Fill-5"></path>
                </g>
            </g>
        </g>
    </g>
</svg>