<?xml version="1.0" encoding="UTF-8" standalone="no"?>
<svg width="30px" height="36px" viewBox="0 0 30 36" version="1.1" xmlns="http://www.w3.org/2000/svg" xmlns:xlink="http://www.w3.org/1999/xlink">
    <!-- Generator: Sketch 3.8.3 (29802) - http://www.bohemiancoding.com/sketch -->
    <title>Group 6</title>
    <desc>Created with Sketch.</desc>
    <defs></defs>
    <g id="Page-1" stroke="none" stroke-width="1" fill="none" fill-rule="evenodd">
        <g id="iPhone-6-Plus" transform="translate(-94.000000, -317.000000)" fill="#FFFFFF">
            <g id="Group-6" transform="translate(94.000000, 317.000000)">
                <g id="Group-5">
                    <polygon id="Fill-1" points="7.42068966 17.3149425 22.262069 17.3149425 22.262069 16.0781609 7.42068966 16.0781609"></polygon>
                    <polygon id="Fill-2" points="7.42068966 22.262069 22.262069 22.262069 22.262069 21.0252874 7.42068966 21.0252874"></polygon>
                    <polygon id="Fill-3" points="7.42068966 27.2104322 17.3149425 27.2104322 17.3149425 25.9736506 7.42068966 25.9736506"></polygon>
                    <path d="M28.445977,34.6298851 L1.23678161,34.6298851 L1.23678161,4.94712644 L11.1310345,4.94712644 L11.1310345,5.83018851 C9.20041839,6.92968736 7.80285517,8.8565931 7.42068966,11.1310345 L22.262069,11.1310345 C21.882377,8.8565931 20.4848138,6.92968736 18.5517241,5.83018851 L18.5517241,4.94712644 L28.445977,4.94712644 L28.445977,34.6298851 Z M12.3678161,6.5499954 L12.3678161,5.83018851 L12.3678161,3.71034483 C12.3678161,2.34617471 13.478446,1.23678161 14.8413793,1.23678161 C16.2067862,1.23678161 17.3149425,2.34617471 17.3149425,3.71034483 L17.3149425,5.83018851 L17.3149425,6.5499954 L17.940754,6.90495172 C19.1552736,7.59754943 20.0853333,8.64757701 20.6220966,9.89425287 L9.06313563,9.89425287 C9.59742529,8.64634023 10.5299586,7.59631264 11.7432414,6.90495172 L12.3678161,6.5499954 Z M18.5517241,3.71034483 C18.5517241,1.6609977 16.8907264,0 14.8413793,0 C12.793269,0 11.1310345,1.6609977 11.1310345,3.71034483 L0,3.71034483 L0,35.8666667 L29.6827586,35.8666667 L29.6827586,3.71034483 L18.5517241,3.71034483 Z" id="Fill-4"></path>
                </g>
            </g>
        </g>
    </g>
</svg>