<?xml version="1.0" encoding="UTF-8" standalone="no"?>
<svg width="40px" height="39px" viewBox="0 0 40 39" version="1.1" xmlns="http://www.w3.org/2000/svg" xmlns:xlink="http://www.w3.org/1999/xlink">
    <!-- Generator: Sketch 3.8.3 (29802) - http://www.bohemiancoding.com/sketch -->
    <title>Group 13</title>
    <desc>Created with Sketch.</desc>
    <defs></defs>
    <g id="Page-1" stroke="none" stroke-width="1" fill="none" fill-rule="evenodd" stroke-linecap="round">
        <g id="iPhone-6-Plus" transform="translate(-97.000000, -828.000000)" stroke="#FFFFFF" stroke-width="1.8">
            <g id="Group-13" transform="translate(98.000000, 828.000000)">
                <g id="Group-4" transform="translate(0.000000, 0.866667)">
                    <path d="M13.3814007,0.579913668 C13.3814007,0.579913668 14.1638609,4.9105698 18.4020743,5.77734072 C18.4020743,5.77734072 24.151338,-5.44590329 33.1893584,4.84420266 C43.6636847,16.7686995 35.7084491,36.8955359 22.6402877,36.428567 C22.6402877,36.428567 17.5334223,37.2945383 11.5296233,33.0302493 C11.5296233,33.0302493 9.66168499,35.9432073 6.42275799,32.0971113 C5.23223347,30.6834111 3,31.6853151 3,36.5005314" id="Path-Copy-2"></path>
                    <path d="M8.91714105,3.50081301 C8.91714105,3.50081301 10.0390183,10.7677358 18.5072739,12.6171665 C18.5072739,12.6171665 18.5954358,15.9862536 20.8627451,17.3077285 L20.8627451,21.6677236 C20.8627451,21.6677236 17.8342821,22.9884058 17.5536445,25.6971519 C17.5536445,25.6971519 14.0204377,24.3098807 11.7214978,27.4807862 C11.7214978,27.4807862 0,19.9609837 0,36.8666667" id="Path-Copy"></path>
                </g>
            </g>
        </g>
    </g>
</svg>