<?xml version="1.0" encoding="UTF-8" standalone="no"?>
<svg width="17px" height="34px" viewBox="0 0 17 34" version="1.1" xmlns="http://www.w3.org/2000/svg" xmlns:xlink="http://www.w3.org/1999/xlink">
    <!-- Generator: Sketch 3.8.3 (29802) - http://www.bohemiancoding.com/sketch -->
    <title>Group 15</title>
    <desc>Created with Sketch.</desc>
    <defs></defs>
    <g id="Page-1" stroke="none" stroke-width="1" fill="none" fill-rule="evenodd">
        <g id="iPhone-6-Plus" transform="translate(-97.000000, -999.000000)" fill="green">
            <g id="Group-15" transform="translate(97.000000, 999.000000)">
                <path d="M0,0.866666667 L0,4.16666667 L4.25,10.7666667 L4.25,33.8666667 L12.75,33.8666667 L12.75,10.7666667 L17,4.16666667 L17,0.866666667 L0,0.866666667 Z M1.21428571,3.86856667 L1.21428571,1.96666667 L15.7857143,1.96666667 L15.7857143,3.86856667 L15.5938571,4.16666667 L1.40614286,4.16666667 L1.21428571,3.86856667 Z M5.46428571,10.7666667 L5.46428571,10.4685667 L5.29792857,10.2122667 L2.11528571,5.26666667 L14.8859286,5.26666667 L11.7008571,10.2122667 L11.5357143,10.4685667 L11.5357143,10.7666667 L11.5357143,29.4611667 L5.46428571,29.4611667 L5.46428571,10.7666667 Z M5.46428571,32.7666667 L11.5357143,32.7666667 L11.5357143,30.5611667 L5.46428571,30.5611667 L5.46428571,32.7666667 Z" id="Fill-1" ></path>
                <path d="M9,19.3556667 C9,19.6306667 8.775,19.8556667 8.5,19.8556667 C8.225,19.8556667 8,19.6306667 8,19.3556667 L8,17.3666667 C8,17.0896667 8.225,16.8666667 8.5,16.8666667 C8.775,16.8666667 9,17.0896667 9,17.3666667 L9,19.3556667 Z M8.5,15.8666667 C7.672,15.8666667 7,16.5386667 7,17.3666667 L7,19.3556667 C7,20.1836667 7.672,20.8556667 8.5,20.8556667 C9.328,20.8556667 10,20.1836667 10,19.3556667 L10,17.3666667 C10,16.5386667 9.328,15.8666667 8.5,15.8666667 L8.5,15.8666667 Z" id="Fill-2"></path>
            </g>
        </g>
    </g>
</svg>