<?xml version="1.0" encoding="UTF-8" standalone="no"?>
<svg width="40px" height="39px" viewBox="0 0 40 39" version="1.1" xmlns="http://www.w3.org/2000/svg" xmlns:xlink="http://www.w3.org/1999/xlink">
    <!-- Generator: Sketch 3.8.3 (29802) - http://www.bohemiancoding.com/sketch -->
    <title>Group 18</title>
    <desc>Created with Sketch.</desc>
    <defs></defs>
    <g id="Page-1" stroke="none" stroke-width="2" fill="none" fill-rule="evenodd">
        <g id="iPhone-6-Plus" transform="translate(-99.000000, -1249.000000)" fill="#FFFFFF">
            <g id="Group-18" transform="translate(99.000000, 1249.000000)">
                <path d="M34.4284551,19.5222669 C32.3552965,19.5222669 30.5515935,20.6798262 29.619497,22.3817959 C28.6901501,20.6798262 26.8836976,19.5222669 24.8132886,19.5222669 C22.74013,19.5222669 20.9323027,20.6798262 20.0043305,22.3817959 C19.0749836,20.6798262 17.2671563,19.5222669 15.1953725,19.5222669 C13.1249635,19.5222669 11.3171362,20.6798262 10.389164,22.3817959 C9.45706754,20.6798262 7.65198981,19.5222669 5.58020601,19.5222669 C3.88785972,19.5222669 2.37835831,20.2797671 1.37752314,21.482694 C2.02916582,11.8372825 10.1334561,4.18804222 20.001581,4.18804222 C29.8669563,4.18804222 37.9698718,11.8372825 38.6256388,21.4799445 C37.6206793,20.2797671 36.1125527,19.5222669 34.4284551,19.5222669 M20.6889678,2.89025595 L20.6889678,0.106339425 L19.3141942,0.106339425 L19.3141942,2.89025595 C8.60608269,3.25319618 0,12.0063796 0,22.7392371 C0,23.4472455 0.0398684342,24.1731259 0.118230529,24.8921325 L1.44763659,24.846765 C1.52737346,22.6100084 3.34344938,20.857172 5.58020601,20.857172 C7.86507972,20.857172 9.7196493,22.7144911 9.7196493,24.9966153 L11.0545545,24.9966153 C11.0545545,22.7144911 12.9132483,20.857172 15.1953725,20.857172 C17.396385,20.857172 19.187715,22.588012 19.3141942,24.7587795 L19.3141942,35.5603756 C19.3141942,37.2362246 20.67522,38.6 22.3510691,38.6 C24.0255433,38.6 25.3879439,37.2362246 25.3879439,35.5603756 L24.0131703,35.5603756 C24.0131703,36.4787243 23.2666683,37.2252264 22.3510691,37.2252264 C21.4327203,37.2252264 20.6889678,36.4787243 20.6889678,35.5603756 L20.6889678,24.8385163 C20.7742037,22.6292552 22.582031,20.857172 24.8132886,20.857172 C27.0954127,20.857172 28.9527318,22.7144911 28.9527318,24.9966153 L30.287637,24.9966153 C30.287637,22.7144911 32.1463309,20.857172 34.4284551,20.857172 C36.6459649,20.857172 38.460666,22.5935111 38.5582749,24.8096461 L39.887681,24.8495145 C39.9619188,24.1428809 40.0004124,23.4348725 40.0004124,22.7392371 C40.0004124,12.0063796 31.3970793,3.25319618 20.6889678,2.89025595" id="Page-1"></path>
            </g>
        </g>
    </g>
</svg>